# xmcd
#
# Track frame offsets: 
#        150
#        11716
#        26913
#        40224
#        53886
#        65525
#        76888
#        87048
#        99179
#        111805
#
# Disc length: 1743 seconds
#
# Revision: 0
# Processed by: cddbd v1.5.2PL0 Copyright (c) Steve Scherf et al.
# Submitted via: ExactAudioCopy v0.99pb4
#
DISCID=7406cd0a
DTITLE=Various Artist - Country Lightning Vol. 1
DYEAR=1978
DGENRE=Classic Country
TTITLE0=Billy "Crash" Craddock - Rub It In
TTITLE1=B.J. Thomas - Another Somebody Done Somebody Wrong Song
TTITLE2=Marty Robbins - The Best Part of Living
TTITLE3=Barbara Fairchild - Teddy Bear Song
TTITLE4=Joe Stampley - Roll On Big Mama
TTITLE5=George Jones - A Picture of Me (Without You)
TTITLE6=Lynn Anderson - What a Man My Man Is
TTITLE7=Sonny James and His Southern Gentlemen - A Little Bit South of
TTITLE7=Saskatoon
TTITLE8=Freddy Fender - Wasted Days and Wasted Nights
TTITLE9=Tammy Wynette - Bedtime Story
EXTD=
EXTT0=
EXTT1=
EXTT2=
EXTT3=
EXTT4=
EXTT5=
EXTT6=
EXTT7=
EXTT8=
EXTT9=
PLAYORDER=
